# xmcd CD database file
#
# Track frame offsets:
#	150
#	19252
#	37546
#	55833
#	72305
#	88462
#	105467
#	122821
#	137348
#	158360
#	170492
#	187807
#	204446
#	222803
#	240295
#	255064
#	268642
#	287246
#	300441
#
# Disc length: 4343 seconds
#
# Revision: 4
# Processed by: cddbd v1.4PL0 Copyright (c) Steve Scherf et al.
# Submitted via: CDex 1.50
#
DISCID=f010f513
DTITLE=John Denver - The Rocky Mountain collection ( Cd 2 )
DYEAR=1996
DGENRE=Country
TTITLE0=John Denver - Fly away
TTITLE1=John Denver - Looking for space
TTITLE2=John Denver - Windsong
TTITLE3=John Denver - Calypso
TTITLE4=John Denver - I'm sorry
TTITLE5=John Denver - Like a sad song
TTITLE6=John Denver - Come and let me look in your eyes
TTITLE7=John Denver - How can i leave you again
TTITLE8=John Denver - Thirsty boots
TTITLE9=John Denver - It amazes me
TTITLE10=John Denver - I want you live
TTITLE11=John Denver - Autograph
TTITLE12=John Denver - Some days are diamonds (some days are stones)
TTITLE13=John Denver - Season of the heart
TTITLE14=John Denver - Shanghai breezes
TTITLE15=John Denver with Placido Domingo - Perhaps love
TTITLE16=John Denver with Emmylou Harrris - Wild montana skies
TTITLE17=John Denver - Love again
TTITLE18=John Denver - Flying for me
EXTD=YEAR: 1996
EXTT0=
EXTT1=
EXTT2=
EXTT3=
EXTT4=
EXTT5=
EXTT6=
EXTT7=
EXTT8=
EXTT9=
EXTT10=
EXTT11=
EXTT12=
EXTT13=
EXTT14=
EXTT15=
EXTT16=
EXTT17=
EXTT18=
PLAYORDER=
